<svg xmlns="http://www.w3.org/2000/svg" viewBox="0 0 800 500" width="800" height="500">
  <defs>
    <linearGradient id="bg-grad" x1="0%" y1="0%" x2="100%" y2="100%">
      <stop offset="0%" style="stop-color:#F9FAFB"/>
      <stop offset="100%" style="stop-color:#E5E7EB"/>
    </linearGradient>
  </defs>

  <!-- Background -->
  <rect width="800" height="500" fill="url(#bg-grad)" rx="12"/>

  <!-- Browser chrome -->
  <rect x="0" y="0" width="800" height="40" fill="#374151" rx="12 12 0 0"/>
  <circle cx="20" cy="20" r="6" fill="#EF4444"/>
  <circle cx="40" cy="20" r="6" fill="#F59E0B"/>
  <circle cx="60" cy="20" r="6" fill="#10B981"/>
  <rect x="200" y="10" width="400" height="20" rx="4" fill="#4B5563"/>

  <!-- Sidebar -->
  <rect x="0" y="40" width="200" height="460" fill="#1F2937"/>
  <rect x="16" y="60" width="168" height="24" rx="4" fill="#374151"/>
  <rect x="16" y="100" width="120" height="16" rx="2" fill="#4B5563"/>
  <rect x="16" y="130" width="168" height="32" rx="4" fill="#4F46E5"/>
  <rect x="16" y="180" width="100" height="12" rx="2" fill="#6B7280"/>
  <rect x="16" y="200" width="140" height="12" rx="2" fill="#6B7280"/>
  <rect x="16" y="220" width="80" height="12" rx="2" fill="#6B7280"/>

  <!-- Main content -->
  <rect x="220" y="60" width="560" height="60" fill="white" rx="8"/>
  <rect x="240" y="75" width="200" height="16" rx="2" fill="#1F2937"/>
  <rect x="240" y="95" width="120" height="12" rx="2" fill="#9CA3AF"/>

  <!-- Cards -->
  <rect x="220" y="140" width="270" height="140" fill="white" rx="8"/>
  <rect x="240" y="160" width="100" height="14" rx="2" fill="#1F2937"/>
  <rect x="240" y="185" width="230" height="10" rx="2" fill="#D1D5DB"/>
  <rect x="240" y="200" width="200" height="10" rx="2" fill="#D1D5DB"/>
  <rect x="240" y="215" width="180" height="10" rx="2" fill="#D1D5DB"/>
  <rect x="240" y="240" width="80" height="24" rx="4" fill="#10B981"/>

  <rect x="510" y="140" width="270" height="140" fill="white" rx="8"/>
  <rect x="530" y="160" width="120" height="14" rx="2" fill="#1F2937"/>
  <rect x="530" y="185" width="230" height="10" rx="2" fill="#D1D5DB"/>
  <rect x="530" y="200" width="200" height="10" rx="2" fill="#D1D5DB"/>
  <rect x="530" y="215" width="150" height="10" rx="2" fill="#D1D5DB"/>
  <rect x="530" y="240" width="80" height="24" rx="4" fill="#F59E0B"/>

  <rect x="220" y="300" width="560" height="140" fill="white" rx="8"/>
  <rect x="240" y="320" width="140" height="14" rx="2" fill="#1F2937"/>
  <rect x="240" y="345" width="520" height="10" rx="2" fill="#D1D5DB"/>
  <rect x="240" y="360" width="480" height="10" rx="2" fill="#D1D5DB"/>
  <rect x="240" y="375" width="400" height="10" rx="2" fill="#D1D5DB"/>
  <rect x="240" y="400" width="100" height="24" rx="4" fill="#4F46E5"/>

  <!-- Progress indicator -->
  <rect x="640" y="60" width="120" height="40" rx="4" fill="#ECFDF5"/>
  <text x="660" y="85" font-family="sans-serif" font-size="12" fill="#059669">80% Complete</text>
</svg>
